<mxfile host="app.diagrams.net" agent="Mozilla/5.0 (Windows NT 10.0; Win64; x64) AppleWebKit/537.36 (KHTML, like Gecko) Chrome/130.0.0.0 Safari/537.36" version="24.8.2">
  <diagram name="Página-1" id="-EFoPrcSQyitdMbGyuex">
    <mxGraphModel dx="1306" dy="585" grid="1" gridSize="10" guides="1" tooltips="1" connect="1" arrows="1" fold="1" page="1" pageScale="1" pageWidth="827" pageHeight="1169" math="0" shadow="0">
      <root>
        <mxCell id="0" />
        <mxCell id="1" parent="0" />
        <mxCell id="OLKyhpPVk8eTXZV1DfDt-13" style="edgeStyle=orthogonalEdgeStyle;rounded=0;orthogonalLoop=1;jettySize=auto;html=1;exitX=0.5;exitY=0;exitDx=0;exitDy=0;exitPerimeter=0;entryX=0;entryY=0.5;entryDx=0;entryDy=0;" edge="1" parent="1" source="OLKyhpPVk8eTXZV1DfDt-1" target="OLKyhpPVk8eTXZV1DfDt-10">
          <mxGeometry relative="1" as="geometry" />
        </mxCell>
        <mxCell id="OLKyhpPVk8eTXZV1DfDt-17" style="edgeStyle=orthogonalEdgeStyle;rounded=0;orthogonalLoop=1;jettySize=auto;html=1;entryX=0.068;entryY=0.808;entryDx=0;entryDy=0;entryPerimeter=0;" edge="1" parent="1" target="OLKyhpPVk8eTXZV1DfDt-12">
          <mxGeometry relative="1" as="geometry">
            <mxPoint x="290" y="320" as="targetPoint" />
            <mxPoint x="140" y="190" as="sourcePoint" />
            <Array as="points">
              <mxPoint x="130" y="190" />
              <mxPoint x="130" y="191" />
              <mxPoint x="291" y="191" />
              <mxPoint x="291" y="317" />
            </Array>
          </mxGeometry>
        </mxCell>
        <mxCell id="OLKyhpPVk8eTXZV1DfDt-1" value="Usuário Registrado" style="shape=umlActor;verticalLabelPosition=bottom;verticalAlign=top;html=1;" vertex="1" parent="1">
          <mxGeometry x="110" y="170" width="30" height="60" as="geometry" />
        </mxCell>
        <mxCell id="OLKyhpPVk8eTXZV1DfDt-10" value="Gerar Link de Convite" style="ellipse;whiteSpace=wrap;html=1;" vertex="1" parent="1">
          <mxGeometry x="340" y="20" width="140" height="70" as="geometry" />
        </mxCell>
        <mxCell id="OLKyhpPVk8eTXZV1DfDt-11" value="Compartilhar Convite" style="ellipse;whiteSpace=wrap;html=1;" vertex="1" parent="1">
          <mxGeometry x="344" y="140" width="140" height="70" as="geometry" />
        </mxCell>
        <mxCell id="OLKyhpPVk8eTXZV1DfDt-12" value="Verificar Convites Enviados" style="ellipse;whiteSpace=wrap;html=1;" vertex="1" parent="1">
          <mxGeometry x="344" y="260" width="140" height="70" as="geometry" />
        </mxCell>
        <mxCell id="OLKyhpPVk8eTXZV1DfDt-14" style="edgeStyle=orthogonalEdgeStyle;rounded=0;orthogonalLoop=1;jettySize=auto;html=1;exitX=1;exitY=0.3333333333333333;exitDx=0;exitDy=0;exitPerimeter=0;entryX=0.114;entryY=0.571;entryDx=0;entryDy=0;entryPerimeter=0;" edge="1" parent="1" source="OLKyhpPVk8eTXZV1DfDt-1" target="OLKyhpPVk8eTXZV1DfDt-11">
          <mxGeometry relative="1" as="geometry" />
        </mxCell>
        <mxCell id="OLKyhpPVk8eTXZV1DfDt-24" style="edgeStyle=orthogonalEdgeStyle;rounded=0;orthogonalLoop=1;jettySize=auto;html=1;exitX=0.5;exitY=0.5;exitDx=0;exitDy=0;exitPerimeter=0;" edge="1" parent="1" source="OLKyhpPVk8eTXZV1DfDt-18">
          <mxGeometry relative="1" as="geometry">
            <mxPoint x="340" y="450" as="targetPoint" />
          </mxGeometry>
        </mxCell>
        <mxCell id="OLKyhpPVk8eTXZV1DfDt-27" style="edgeStyle=orthogonalEdgeStyle;rounded=0;orthogonalLoop=1;jettySize=auto;html=1;" edge="1" parent="1" source="OLKyhpPVk8eTXZV1DfDt-18">
          <mxGeometry relative="1" as="geometry">
            <mxPoint x="340" y="550" as="targetPoint" />
            <Array as="points">
              <mxPoint x="281" y="450" />
            </Array>
          </mxGeometry>
        </mxCell>
        <mxCell id="OLKyhpPVk8eTXZV1DfDt-18" value="Novo Usuário" style="shape=umlActor;verticalLabelPosition=bottom;verticalAlign=top;html=1;" vertex="1" parent="1">
          <mxGeometry x="100" y="420" width="30" height="60" as="geometry" />
        </mxCell>
        <mxCell id="OLKyhpPVk8eTXZV1DfDt-22" value="Receber Convite&amp;nbsp;&amp;nbsp;" style="ellipse;whiteSpace=wrap;html=1;" vertex="1" parent="1">
          <mxGeometry x="344" y="420" width="140" height="70" as="geometry" />
        </mxCell>
        <mxCell id="OLKyhpPVk8eTXZV1DfDt-23" value="Cadastrar-se&amp;nbsp;" style="ellipse;whiteSpace=wrap;html=1;" vertex="1" parent="1">
          <mxGeometry x="344" y="515" width="140" height="70" as="geometry" />
        </mxCell>
        <mxCell id="OLKyhpPVk8eTXZV1DfDt-32" style="edgeStyle=orthogonalEdgeStyle;rounded=0;orthogonalLoop=1;jettySize=auto;html=1;entryX=0;entryY=0.5;entryDx=0;entryDy=0;" edge="1" parent="1" source="OLKyhpPVk8eTXZV1DfDt-29" target="OLKyhpPVk8eTXZV1DfDt-30">
          <mxGeometry relative="1" as="geometry" />
        </mxCell>
        <mxCell id="OLKyhpPVk8eTXZV1DfDt-33" style="edgeStyle=orthogonalEdgeStyle;rounded=0;orthogonalLoop=1;jettySize=auto;html=1;exitX=0.5;exitY=0.5;exitDx=0;exitDy=0;exitPerimeter=0;entryX=0;entryY=0.5;entryDx=0;entryDy=0;" edge="1" parent="1" source="OLKyhpPVk8eTXZV1DfDt-29" target="OLKyhpPVk8eTXZV1DfDt-31">
          <mxGeometry relative="1" as="geometry" />
        </mxCell>
        <mxCell id="OLKyhpPVk8eTXZV1DfDt-29" value="Sistema" style="shape=umlActor;verticalLabelPosition=bottom;verticalAlign=top;html=1;" vertex="1" parent="1">
          <mxGeometry x="100" y="700" width="30" height="60" as="geometry" />
        </mxCell>
        <mxCell id="OLKyhpPVk8eTXZV1DfDt-30" value="Verificar Estatísticas&amp;nbsp; &amp;nbsp;" style="ellipse;whiteSpace=wrap;html=1;" vertex="1" parent="1">
          <mxGeometry x="350" y="695" width="140" height="70" as="geometry" />
        </mxCell>
        <mxCell id="OLKyhpPVk8eTXZV1DfDt-31" value="Limitar Convites" style="ellipse;whiteSpace=wrap;html=1;" vertex="1" parent="1">
          <mxGeometry x="350" y="800" width="140" height="70" as="geometry" />
        </mxCell>
        <mxCell id="OLKyhpPVk8eTXZV1DfDt-34" value="&lt;br&gt;&lt;div&gt;&lt;br&gt;&lt;/div&gt;" style="text;html=1;align=center;verticalAlign=middle;resizable=0;points=[];autosize=1;strokeColor=none;fillColor=none;" vertex="1" parent="1">
          <mxGeometry x="310" y="3" width="20" height="40" as="geometry" />
        </mxCell>
        <mxCell id="OLKyhpPVk8eTXZV1DfDt-35" style="edgeStyle=orthogonalEdgeStyle;rounded=0;orthogonalLoop=1;jettySize=auto;html=1;exitX=0.5;exitY=0.5;exitDx=0;exitDy=0;exitPerimeter=0;entryX=0.38;entryY=0.741;entryDx=0;entryDy=0;entryPerimeter=0;" edge="1" parent="1" source="OLKyhpPVk8eTXZV1DfDt-1" target="OLKyhpPVk8eTXZV1DfDt-1">
          <mxGeometry relative="1" as="geometry" />
        </mxCell>
        <mxCell id="OLKyhpPVk8eTXZV1DfDt-38" value="DIAGRAMA CASOS DE USO-MEMBER GET MEMBER" style="text;html=1;align=center;verticalAlign=middle;resizable=0;points=[];autosize=1;strokeColor=none;fillColor=none;" vertex="1" parent="1">
          <mxGeometry x="500" y="13" width="320" height="30" as="geometry" />
        </mxCell>
      </root>
    </mxGraphModel>
  </diagram>
</mxfile>
